<?xml version="1.0" standalone="no"?>
<!DOCTYPE svg PUBLIC "-//W3C//DTD SVG 20010904//EN"
 "http://www.w3.org/TR/2001/REC-SVG-20010904/DTD/svg10.dtd">
<svg version="1.0" xmlns="http://www.w3.org/2000/svg"
 width="1237.000000pt" height="686.000000pt" viewBox="0 0 1237.000000 686.000000"
 preserveAspectRatio="xMidYMid meet">
<metadata>
Created by potrace 1.16, written by Peter Selinger 2001-2019
</metadata>
<g transform="translate(0.000000,686.000000) scale(0.100000,-0.100000)"
fill="#000000" stroke="none">
<path d="M3925 5306 c-45 -7 -104 -21 -132 -30 -47 -16 -56 -16 -111 -2 -201
53 -307 -34 -301 -246 2 -74 -1 -90 -28 -148 -17 -36 -58 -143 -92 -238 -70
-199 -85 -229 -140 -300 -55 -70 -119 -106 -174 -99 -23 2 -120 39 -216 81
-277 122 -363 145 -548 146 -349 1 -688 -174 -956 -495 -171 -203 -317 -513
-372 -785 -26 -129 -94 -214 -319 -401 -155 -129 -248 -264 -276 -403 -48
-239 150 -418 565 -506 28 -6 228 -15 445 -20 276 -6 428 -14 505 -25 61 -9
130 -19 154 -22 l44 -6 -7 33 c-9 49 -61 124 -120 175 l-51 45 77 0 c69 0 77
2 83 21 14 43 -16 111 -74 169 -60 59 -93 74 -194 86 l-58 7 70 34 c38 18 94
56 125 83 l55 51 -5 -73 c-6 -86 10 -122 73 -161 73 -46 111 -52 503 -86 120
-11 230 -4 278 16 31 13 33 17 27 46 -10 49 -55 99 -115 129 -43 21 -79 29
-165 36 -60 5 -123 15 -139 21 l-29 12 49 31 c27 18 76 61 109 95 l61 63 67 0
67 0 28 -43 c15 -23 72 -103 128 -177 56 -74 136 -185 178 -247 42 -62 88
-121 102 -132 64 -50 232 -91 376 -91 89 0 220 23 247 44 19 15 7 88 -24 133
-40 61 -83 83 -192 101 -150 23 -168 48 -168 227 1 201 45 275 163 275 89 0
121 -26 266 -221 112 -152 327 -368 401 -405 52 -25 66 -27 234 -32 160 -4
184 -3 225 14 30 13 46 25 46 37 0 29 -29 90 -58 120 -50 53 -77 61 -208 62
-110 2 -125 4 -154 25 -80 57 -116 219 -107 475 6 187 26 282 81 393 74 148
105 279 131 552 19 191 48 347 75 399 15 30 24 37 52 39 103 7 219 53 275 109
26 28 50 42 76 46 49 8 66 22 89 75 10 23 25 42 32 42 6 0 40 -9 74 -21 73
-25 170 -85 219 -137 20 -21 30 -28 24 -16 -33 66 -177 170 -283 204 -37 11
-47 23 -29 34 14 9 183 -14 251 -34 81 -24 89 -19 13 10 -76 28 -148 47 -217
55 -63 8 -77 31 -23 39 61 10 290 25 299 20 4 -3 8 0 8 5 0 7 -58 11 -175 11
-161 0 -175 1 -184 19 -6 10 -31 42 -55 71 -25 29 -48 67 -52 84 -12 55 -42
143 -63 184 -12 23 -21 54 -21 70 0 45 -28 127 -50 147 -14 12 -43 20 -93 25
-39 3 -82 11 -93 18 -12 6 -66 23 -120 37 -123 32 -335 42 -459 21z m294 -66
c197 -21 308 -68 412 -172 55 -56 85 -99 117 -171 3 -5 -5 -4 -17 2 -24 14
-27 3 -6 -25 8 -10 15 -29 15 -41 0 -12 6 -26 14 -30 7 -4 21 -23 30 -41 10
-18 34 -52 54 -74 26 -29 30 -38 15 -30 -45 25 -144 7 -163 -28 -29 -54 7
-126 70 -139 31 -6 35 -11 32 -34 l-3 -27 36 24 c20 14 45 35 55 48 l20 23 -6
-30 c-10 -44 -32 -83 -53 -95 -11 -5 -44 -10 -73 -10 -29 0 -75 -7 -103 -16
-29 -9 -109 -19 -190 -23 -140 -7 -140 -7 -95 -21 49 -16 166 -19 275 -8 l70
7 -53 -25 c-83 -40 -183 -53 -407 -53 -183 0 -198 1 -180 15 37 28 149 81 240
113 50 17 96 34 104 36 8 3 12 8 9 10 -8 8 -158 -33 -228 -62 -36 -15 -96 -45
-134 -66 -67 -38 -69 -38 -120 -26 -81 18 -83 23 -29 49 103 49 174 73 338
111 94 22 175 45 180 51 11 11 -9 8 -170 -23 -155 -30 -190 -42 -337 -114
l-97 -48 -83 42 c-46 24 -100 56 -120 72 -47 37 -48 30 -3 -31 47 -65 108
-118 185 -164 36 -22 67 -41 70 -43 2 -2 -33 -40 -78 -83 -83 -81 -97 -99 -63
-81 10 6 21 8 24 5 3 -3 4 3 4 13 -1 11 4 18 15 17 10 -1 16 1 14 5 -6 10 14
32 67 75 l47 39 62 -18 c77 -21 103 -38 118 -76 26 -61 -10 -273 -74 -444 -77
-202 -269 -458 -464 -618 -48 -39 -72 -53 -69 -41 10 33 29 155 25 159 -2 2
-37 -42 -78 -98 -197 -267 -254 -391 -254 -557 -1 -100 14 -149 59 -196 50
-51 118 -77 245 -93 84 -11 134 -39 160 -92 22 -42 24 -49 13 -49 -5 0 -18 16
-30 35 -23 34 -87 75 -118 75 -13 0 -10 -8 13 -37 29 -37 52 -76 52 -87 0 -18
-29 1 -55 36 -16 23 -46 49 -65 59 -37 19 -114 37 -93 22 27 -20 73 -88 73
-109 0 -22 -1 -22 -32 -10 -18 8 -71 22 -118 31 -97 19 -158 50 -196 100 -15
19 -67 113 -116 208 -97 186 -114 213 -103 157 7 -35 7 -35 -26 15 -71 110
-119 260 -119 374 -1 85 -13 65 -38 -60 l-19 -94 -12 70 c-8 43 -13 158 -13
300 0 173 -2 221 -10 195 -49 -167 -65 -208 -104 -260 -85 -116 -221 -162
-324 -110 -44 22 -72 59 -130 165 -83 153 -171 257 -279 329 -98 65 -113 68
-64 12 23 -26 52 -64 63 -83 l21 -36 -37 33 c-54 47 -184 104 -184 81 0 -6 4
-11 9 -11 17 0 90 -66 127 -115 48 -64 99 -174 114 -250 17 -80 14 -235 -4
-299 -35 -118 -123 -225 -235 -285 -61 -32 -188 -71 -233 -71 -35 0 -35 -10
-2 -39 66 -58 118 -75 267 -90 123 -12 177 -37 212 -94 30 -51 25 -60 -11 -18
-25 30 -91 71 -113 71 -6 0 9 -21 33 -46 42 -43 64 -84 46 -84 -5 0 -23 17
-40 38 -32 40 -85 75 -132 86 -34 8 -34 6 -3 -40 25 -37 32 -64 17 -64 -4 0
-23 11 -42 25 -30 22 -93 45 -241 89 -31 9 -61 22 -67 29 -6 6 -23 44 -38 82
-32 82 -38 91 -95 153 -132 141 -181 253 -200 451 -20 207 2 351 82 551 65
163 137 284 248 422 193 239 481 404 766 438 239 29 401 -16 752 -210 51 -28
105 -52 121 -52 l30 -1 -40 -73 c-22 -41 -38 -78 -36 -83 10 -30 237 213 294
315 44 79 123 274 163 403 17 55 40 121 51 146 l20 47 46 -41 c41 -36 64 -49
64 -37 0 2 -11 23 -24 47 -55 98 -70 231 -36 307 37 81 132 92 305 34 47 -16
88 -25 90 -21 3 3 -5 18 -16 33 -25 31 -22 33 81 45 105 12 181 12 289 1z
m-3419 -2636 c-67 -137 -86 -206 -70 -265 31 -115 212 -190 619 -259 102 -18
216 -43 254 -57 60 -22 217 -107 217 -119 0 -2 -17 3 -37 10 -70 27 -147 35
-398 41 -486 11 -701 47 -861 140 -111 65 -178 173 -177 285 1 123 74 225 295
412 64 54 132 116 150 138 l33 39 18 -122 18 -121 -61 -122z m343 -181 c18
-28 28 -61 36 -122 6 -46 9 -86 8 -88 -12 -11 -173 64 -199 94 -16 18 -14 22
47 86 35 37 68 67 73 67 5 0 21 -17 35 -37z m3387 -190 c36 -25 49 -45 50 -75
0 -41 -12 -34 -37 20 -13 27 -33 54 -45 60 -15 7 -17 11 -8 11 9 1 27 -7 40
-16z m-128 -32 c48 -30 68 -56 68 -87 0 -11 -11 -2 -29 23 -16 22 -45 50 -65
62 -20 13 -36 25 -36 27 0 10 19 2 62 -25z"/>
<path d="M3540 5143 c-53 -48 -59 -147 -14 -234 16 -32 29 -37 38 -13 3 8 10
12 16 9 5 -3 8 0 5 7 -6 14 63 91 135 152 43 36 44 38 26 52 -28 20 -122 54
-151 54 -14 0 -38 -12 -55 -27z"/>
<path d="M4164 4883 c-21 -49 -9 -91 35 -120 56 -38 123 -25 151 27 15 29 -12
85 -52 110 -20 12 -51 20 -76 20 -40 0 -44 -2 -58 -37z m136 -48 c0 -19 -20
-29 -32 -17 -8 8 -7 16 2 26 14 17 30 12 30 -9z"/>
<path d="M4164 4530 c-86 -9 -245 -44 -272 -60 -24 -13 -7 -12 73 5 39 8 169
20 290 26 209 11 234 13 224 23 -9 10 -240 14 -315 6z"/>
<path d="M6300 4177 c-96 -33 -110 -196 -20 -242 44 -23 111 -19 151 8 89 59
64 208 -39 237 -45 12 -48 12 -92 -3z"/>
<path d="M9658 3486 l2 -676 259 0 c283 0 374 8 481 45 256 87 399 294 417
600 15 281 -110 519 -328 623 -148 70 -176 75 -524 79 l-310 5 3 -676z m562
443 c178 -28 295 -137 331 -309 17 -83 7 -263 -20 -330 -44 -113 -123 -190
-239 -232 -46 -17 -87 -22 -219 -26 l-163 -4 0 449 c0 247 3 453 7 456 10 11
231 8 303 -4z"/>
<path d="M10970 3485 l0 -675 130 0 130 0 0 280 0 280 270 0 270 0 0 110 0
110 -270 0 -270 0 0 175 0 175 305 0 305 0 0 110 0 110 -435 0 -435 0 0 -675z"/>
<path d="M6882 3785 c-165 -37 -257 -124 -269 -254 -13 -142 65 -233 247 -287
242 -71 248 -74 274 -105 71 -83 -22 -183 -153 -164 -104 14 -177 53 -208 109
-10 18 -16 16 -101 -30 l-90 -48 15 -29 c24 -48 95 -112 154 -139 87 -41 150
-51 273 -45 139 6 205 29 280 98 83 75 111 171 82 272 -36 125 -118 184 -336
241 -140 37 -174 54 -200 99 -13 24 -13 30 0 55 25 45 74 64 156 59 84 -5 158
-36 183 -77 l17 -28 79 45 c44 24 82 46 84 49 9 9 -52 86 -90 114 -95 68 -263
96 -397 65z"/>
<path d="M7885 3794 c-169 -27 -329 -151 -386 -303 -27 -72 -37 -226 -20 -313
45 -231 242 -388 486 -388 152 0 277 51 371 152 94 102 127 195 128 353 0 78
-5 115 -23 168 -52 154 -165 265 -320 313 -49 15 -185 25 -236 18z m176 -199
c98 -35 158 -133 166 -270 13 -206 -71 -331 -229 -343 -83 -6 -144 10 -192 50
-113 93 -138 306 -53 450 63 104 195 152 308 113z"/>
<path d="M9003 3785 c-66 -20 -131 -63 -162 -105 l-29 -40 -6 31 c-3 18 -6 49
-6 70 l0 39 -105 0 -105 0 0 -485 0 -485 115 0 115 0 0 288 c0 159 5 307 11
332 13 60 50 114 101 147 35 24 52 28 107 28 82 0 129 -26 169 -93 l27 -47 3
-327 3 -328 115 0 115 0 -3 368 -3 367 -29 62 c-58 126 -168 194 -314 192 -42
0 -96 -6 -119 -14z"/>
<path d="M5199 3663 c22 -60 85 -234 141 -388 57 -154 117 -320 135 -370 l32
-90 130 -3 129 -3 21 58 c12 32 94 245 182 473 89 228 161 418 161 422 0 4
-54 8 -119 8 l-119 0 -57 -167 c-31 -93 -84 -249 -117 -348 -34 -99 -64 -183
-67 -187 -4 -4 -60 152 -124 347 l-119 355 -123 0 -124 0 38 -107z"/>
<path d="M6240 3290 l0 -480 115 0 115 0 0 480 0 480 -115 0 -115 0 0 -480z"/>
</g>
</svg>
